<svg xmlns="http://www.w3.org/2000/svg" xmlns:svg="http://www.w3.org/2000/svg" id="svg7384" width="16" height="16" version="1.1"><metadata id="metadata90"/><title id="title9167">Gnome Symbolic Icon Theme</title><path id="path2996" fill="#bebebe" fill-opacity="1" stroke="none" d="M 8.5 0 C 7.6715729 -1.4802974e-16 7 0.67157284 7 1.5 L 7 11.5 C 6.3881928 11.955718 6 12.678476 6 13.5 C 6 14.880712 7.1192882 16 8.5 16 C 9.8807118 16 11 14.880712 11 13.5 C 11 12.678476 10.611807 11.955718 10 11.5 L 10 10 L 9 10 L 9 12.09375 C 9.586412 12.29759 10 12.844162 10 13.5 C 10 14.328427 9.3284271 15 8.5 15 C 7.6715729 15 7 14.328427 7 13.5 C 7 12.844162 7.413588 12.29759 8 12.09375 L 8 1.5 C 8 1.2238576 8.2238576 1 8.5 1 C 8.7761424 1 9 1.2238576 9 1.5 L 9 3 L 10 3 L 10 1.5 C 10 0.67157284 9.3284271 -1.4802974e-16 8.5 0 z M 9 4 L 9 6 L 10 6 L 10 4 L 9 4 z M 9 7 L 9 9 L 10 9 L 10 7 L 9 7 z"/><path id="rect3817" fill="#bebebe" fill-opacity="1" stroke="none" d="M 8.5 5.90625 C 8.4323857 5.90625 8.4010746 5.9421069 8.375 6 C 8.3656131 6.0208415 8.34375 6.0381589 8.34375 6.0625 L 8.34375 13.03125 C 8.1487143 13.099435 8 13.281698 8 13.5 C 8 13.776142 8.2238576 14 8.5 14 C 8.7761424 14 9 13.776142 9 13.5 C 9 13.281698 8.8512857 13.099435 8.65625 13.03125 L 8.65625 6.0625 C 8.65625 6.0381589 8.6343869 6.0208415 8.625 6 C 8.5989254 5.9421069 8.5676143 5.90625 8.5 5.90625 z"/></svg>